<svg width="29" height="35" viewBox="0 0 29 35" fill="none" xmlns="http://www.w3.org/2000/svg">
<rect width="1.23135" height="1.23135" transform="matrix(-1 0 0 1 23.3955 16.0093)" fill="#3F1806"/>
<rect width="1.23135" height="1.23135" transform="matrix(-1 0 0 1 23.3955 19.7017)" fill="#3F1806"/>
<rect width="1.23135" height="1.23135" transform="matrix(-1 0 0 1 23.3955 23.396)" fill="#3F1806"/>
<rect width="1.23135" height="1.23135" transform="matrix(-1 0 0 1 23.3955 24.6284)" fill="#3F1806"/>
<rect width="1.23135" height="1.23135" transform="matrix(-1 0 0 1 22.1641 24.6284)" fill="#3F1806"/>
<rect width="1.23135" height="1.23135" transform="matrix(-1 0 0 1 22.1641 25.8594)" fill="#3F1806"/>
<rect width="1.23135" height="1.23135" transform="matrix(-1 0 0 1 20.9316 28.3213)" fill="#3F1806"/>
<rect width="1.23135" height="1.23135" transform="matrix(-1 0 0 1 19.7012 29.5537)" fill="#3F1806"/>
<rect width="1.23135" height="1.23135" transform="matrix(-1 0 0 1 18.4697 30.7847)" fill="#3F1806"/>
<rect width="1.23135" height="1.23135" transform="matrix(-1 0 0 1 17.2393 32.0156)" fill="#3F1806"/>
<rect width="1.23135" height="1.23135" transform="matrix(-1 0 0 1 20.9316 25.8594)" fill="#3F1806"/>
<rect width="1.23135" height="1.23135" transform="matrix(-1 0 0 1 19.7012 28.3213)" fill="#3F1806"/>
<rect width="1.23135" height="1.23135" transform="matrix(-1 0 0 1 18.4697 29.5537)" fill="#3F1806"/>
<rect width="1.23135" height="1.23135" transform="matrix(-1 0 0 1 17.2393 30.7847)" fill="#3F1806"/>
<rect width="1.23135" height="1.23135" transform="matrix(-1 0 0 1 16.0068 30.7847)" fill="#3F1806"/>
<rect width="1.23135" height="1.23135" transform="matrix(-1 0 0 1 16.0068 32.0156)" fill="#3F1806"/>
<rect width="1.23135" height="1.23135" transform="matrix(-1 0 0 1 14.7754 33.2466)" fill="#3F1806"/>
<rect width="1.23135" height="1.23135" transform="matrix(-1 0 0 1 14.7754 32.0156)" fill="#3F1806"/>
<rect width="1.23135" height="1.23135" transform="matrix(-1 0 0 1 13.5449 33.2466)" fill="#3F1806"/>
<rect width="1.23135" height="1.23135" transform="matrix(-1 0 0 1 13.5449 32.0156)" fill="#070202"/>
<rect width="1.23135" height="1.23135" transform="matrix(-1 0 0 1 12.3125 33.2466)" fill="#070202"/>
<rect width="1.23135" height="1.23135" transform="matrix(-1 0 0 1 12.3125 32.0156)" fill="#070202"/>
<rect width="1.23135" height="1.23135" transform="matrix(-1 0 0 1 11.0811 33.2466)" fill="#070202"/>
<rect width="1.23135" height="1.23135" transform="matrix(-1 0 0 1 11.0811 32.0156)" fill="#070202"/>
<rect width="1.23135" height="1.23135" transform="matrix(-1 0 0 1 9.85059 33.2466)" fill="#3F1806"/>
<rect width="1.23135" height="1.23135" transform="matrix(-1 0 0 1 7.38672 32.0156)" fill="#3F1806"/>
<rect width="1.23135" height="1.23135" transform="matrix(-1 0 0 1 9.85059 32.0156)" fill="#070202"/>
<rect width="1.23135" height="1.23135" transform="matrix(-1 0 0 1 8.61914 32.0156)" fill="#070202"/>
<rect width="1.23135" height="1.23135" transform="matrix(-1 0 0 1 22.1641 27.0903)" fill="#3F1806"/>
<rect width="1.23135" height="1.23135" transform="matrix(-1 0 0 1 20.9316 27.0903)" fill="#3F1806"/>
<rect width="1.23135" height="1.23135" transform="matrix(-1 0 0 1 20.9316 27.0903)" fill="#3F1806"/>
<rect width="1.23135" height="1.23135" transform="matrix(-1 0 0 1 19.7012 16.0093)" fill="#3F1806"/>
<rect width="1.23135" height="1.23135" transform="matrix(-1 0 0 1 18.4697 14.7769)" fill="#3F1806"/>
<rect width="1.23135" height="1.23135" transform="matrix(-1 0 0 1 17.2393 13.5459)" fill="#3F1806"/>
<rect width="1.23135" height="1.23135" transform="matrix(-1 0 0 1 16.0068 13.5459)" fill="#3F1806"/>
<rect width="1.23135" height="1.23135" transform="matrix(-1 0 0 1 14.7754 12.3149)" fill="#3F1806"/>
<rect width="1.23135" height="1.23135" transform="matrix(-1 0 0 1 13.5449 12.3149)" fill="#3F1806"/>
<rect width="1.23135" height="1.23135" transform="matrix(-1 0 0 1 9.85059 11.0825)" fill="#3F1806"/>
<rect width="1.23135" height="1.23135" transform="matrix(-1 0 0 1 7.38672 12.3149)" fill="#3F1806"/>
<rect width="1.23135" height="1.23135" transform="matrix(-1 0 0 1 23.3955 14.7769)" fill="#070202"/>
<rect width="1.23135" height="1.23135" transform="matrix(-1 0 0 1 22.1641 14.7769)" fill="#070202"/>
<rect width="1.23135" height="1.23135" transform="matrix(-1 0 0 1 22.1641 18.4712)" fill="#070202"/>
<rect width="1.23135" height="1.23135" transform="matrix(-1 0 0 1 23.3955 22.165)" fill="#070202"/>
<rect width="1.23135" height="1.23135" transform="matrix(-1 0 0 1 22.1641 22.165)" fill="#070202"/>
<rect width="1.23135" height="1.23135" transform="matrix(-1 0 0 1 22.1641 23.396)" fill="#070202"/>
<rect width="1.23135" height="1.23135" transform="matrix(-1 0 0 1 20.9316 18.4712)" fill="#070202"/>
<rect width="1.23135" height="1.23135" transform="matrix(-1 0 0 1 20.9316 14.7769)" fill="#E5762E"/>
<rect width="1.23135" height="1.23135" transform="matrix(-1 0 0 1 12.3125 30.7847)" fill="#E5762E"/>
<rect width="1.23135" height="1.23135" transform="matrix(-1 0 0 1 19.7012 14.7769)" fill="#E5762E"/>
<rect width="1.23135" height="1.23135" transform="matrix(-1 0 0 1 11.0811 30.7847)" fill="#E5762E"/>
<rect width="1.23135" height="1.23135" transform="matrix(-1 0 0 1 9.85059 30.7847)" fill="#E5762E"/>
<rect width="1.23135" height="1.23135" transform="matrix(-1 0 0 1 7.38672 29.5537)" fill="#E5762E"/>
<rect width="1.23135" height="1.23135" transform="matrix(-1 0 0 1 17.2393 14.7769)" fill="#E5762E"/>
<rect width="1.23135" height="1.23135" transform="matrix(-1 0 0 1 19.7012 17.2402)" fill="#E5762E"/>
<rect width="1.23135" height="1.23135" transform="matrix(-1 0 0 1 20.9316 19.7017)" fill="#E5762E"/>
<rect width="1.23135" height="1.23135" transform="matrix(-1 0 0 1 20.9316 20.9346)" fill="#F2E480"/>
<rect width="1.23135" height="1.23135" transform="matrix(-1 0 0 1 16.0068 18.4712)" fill="#F2E480"/>
<rect width="1.23135" height="1.23135" transform="matrix(-1 0 0 1 14.7754 18.4712)" fill="#F2E480"/>
<rect width="1.23135" height="1.23135" transform="matrix(-1 0 0 1 13.5449 18.4712)" fill="#F2E480"/>
<rect width="1.23135" height="1.23135" transform="matrix(-1 0 0 1 12.3125 18.4712)" fill="#F2E480"/>
<rect width="1.23135" height="1.23135" transform="matrix(-1 0 0 1 11.0811 18.4712)" fill="#F2E480"/>
<rect width="1.23135" height="1.23135" transform="matrix(-1 0 0 1 9.85059 18.4712)" fill="#F2E480"/>
<rect width="1.23135" height="1.23135" transform="matrix(-1 0 0 1 8.61914 18.4712)" fill="#F2E480"/>
<rect width="1.23135" height="1.23135" transform="matrix(-1 0 0 1 7.38672 18.4712)" fill="#F2E480"/>
<rect width="1.23135" height="1.23135" transform="matrix(-1 0 0 1 6.15625 18.4712)" fill="#F2E480"/>
<rect width="1.23135" height="1.23135" transform="matrix(-1 0 0 1 19.7012 18.4712)" fill="#E9AA43"/>
<rect width="1.23135" height="1.23135" transform="matrix(-1 0 0 1 28.3203 4.92627)" fill="#E9AA43"/>
<rect width="1.23135" height="1.23135" transform="matrix(-1 0 0 1 28.3203 3.69531)" fill="#E9AA43"/>
<rect width="1.23135" height="1.23135" transform="matrix(-1 0 0 1 27.0898 3.69531)" fill="#E9AA43"/>
<rect width="1.23135" height="1.23135" transform="matrix(-1 0 0 1 27.0898 2.46289)" fill="#E9AA43"/>
<rect width="1.23135" height="1.23135" transform="matrix(-1 0 0 1 25.8564 2.46289)" fill="#E9AA43"/>
<rect width="1.23135" height="1.23135" transform="matrix(-1 0 0 1 24.626 4.92627)" fill="#E9AA43"/>
<rect width="1.23135" height="1.23135" transform="matrix(-1 0 0 1 16.0068 14.7769)" fill="#E9AA43"/>
<rect width="1.23135" height="1.23135" transform="matrix(-1 0 0 1 14.7754 13.5459)" fill="#E9AA43"/>
<rect width="1.23135" height="1.23135" transform="matrix(-1 0 0 1 18.4697 18.4712)" fill="#E9AA43"/>
<rect width="1.23135" height="1.23135" transform="matrix(-1 0 0 1 14.7754 14.7769)" fill="#E9AA43"/>
<rect width="1.23135" height="1.23135" transform="matrix(-1 0 0 1 13.5449 13.5459)" fill="#E9AA43"/>
<rect width="1.23135" height="1.23135" transform="matrix(-1 0 0 1 11.0811 13.5459)" fill="#E9AA43"/>
<rect width="1.23135" height="1.23135" transform="matrix(-1 0 0 1 18.4697 16.0093)" fill="#E9AA43"/>
<rect width="1.23135" height="1.23135" transform="matrix(-1 0 0 1 19.7012 12.3149)" fill="#E9AA43"/>
<rect width="1.23135" height="1.23135" transform="matrix(-1 0 0 1 17.2393 18.4712)" fill="#E9AA43"/>
<rect width="1.23135" height="1.23135" transform="matrix(-1 0 0 1 13.5449 14.7769)" fill="#E9AA43"/>
<rect width="1.23135" height="1.23135" transform="matrix(-1 0 0 1 12.3125 13.5459)" fill="#E9AA43"/>
<rect width="1.23135" height="1.23135" transform="matrix(-1 0 0 1 9.85059 13.5459)" fill="#E9AA43"/>
<rect width="1.23135" height="1.23135" transform="matrix(-1 0 0 1 7.38672 14.7769)" fill="#E9AA43"/>
<rect width="1.23135" height="1.23135" transform="matrix(-1 0 0 1 17.2393 16.0093)" fill="#E9AA43"/>
<rect width="1.23135" height="1.23135" transform="matrix(-1 0 0 1 18.4697 12.3149)" fill="#E9AA43"/>
<rect width="1.23135" height="1.23135" transform="matrix(-1 0 0 1 16.0068 12.3149)" fill="#E9AA43"/>
<rect width="1.23135" height="1.23135" transform="matrix(-1 0 0 1 16.0068 16.0093)" fill="#E9AA43"/>
<rect width="1.23135" height="1.23135" transform="matrix(-1 0 0 1 20.9316 22.165)" fill="#F2E480"/>
<rect width="1.23135" height="1.23135" transform="matrix(-1 0 0 1 16.0068 19.7017)" fill="#F2E480"/>
<rect width="1.23135" height="1.23135" transform="matrix(-1 0 0 1 14.7754 19.7017)" fill="#F2E480"/>
<rect width="1.23135" height="1.23135" transform="matrix(-1 0 0 1 13.5449 19.7017)" fill="#F2E480"/>
<rect width="1.23135" height="1.23135" transform="matrix(-1 0 0 1 12.3125 19.7017)" fill="#F2E480"/>
<rect width="1.23135" height="1.23135" transform="matrix(-1 0 0 1 11.0811 19.7017)" fill="#F2E480"/>
<rect width="1.23135" height="1.23135" transform="matrix(-1 0 0 1 9.85059 19.7017)" fill="#F2E480"/>
<rect width="1.23135" height="1.23135" transform="matrix(-1 0 0 1 8.61914 19.7017)" fill="#F2E480"/>
<rect width="1.23135" height="1.23135" transform="matrix(-1 0 0 1 7.38672 19.7017)" fill="#F2E480"/>
<rect width="1.23135" height="1.23135" transform="matrix(-1 0 0 1 6.15625 19.7017)" fill="#F2E480"/>
<rect width="1.23135" height="1.23135" transform="matrix(-1 0 0 1 19.7012 19.7017)" fill="#E9AA43"/>
<rect width="1.23135" height="1.23135" transform="matrix(-1 0 0 1 18.4697 19.7017)" fill="#E9AA43"/>
<rect width="1.23135" height="1.23135" transform="matrix(-1 0 0 1 18.4697 17.2402)" fill="#E9AA43"/>
<rect width="1.23135" height="1.23135" transform="matrix(-1 0 0 1 19.7012 13.5459)" fill="#E9AA43"/>
<rect width="1.23135" height="1.23135" transform="matrix(-1 0 0 1 17.2393 19.7017)" fill="#E9AA43"/>
<rect width="1.23135" height="1.23135" transform="matrix(-1 0 0 1 17.2393 17.2402)" fill="#E9AA43"/>
<rect width="1.23135" height="1.23135" transform="matrix(-1 0 0 1 18.4697 13.5459)" fill="#E9AA43"/>
<rect width="1.23135" height="1.23135" transform="matrix(-1 0 0 1 16.0068 17.2402)" fill="#E9AA43"/>
<rect width="1.23135" height="1.23135" transform="matrix(-1 0 0 1 20.9316 23.396)" fill="#F2E480"/>
<rect width="1.23135" height="1.23135" transform="matrix(-1 0 0 1 16.0068 20.9346)" fill="#F2E480"/>
<rect width="1.23135" height="1.23135" transform="matrix(-1 0 0 1 14.7754 20.9346)" fill="#F2E480"/>
<rect width="1.23135" height="1.23135" transform="matrix(-1 0 0 1 13.5449 20.9346)" fill="#F2E480"/>
<rect width="1.23135" height="1.23135" transform="matrix(-1 0 0 1 12.3125 20.9346)" fill="#F2E480"/>
<rect width="1.23135" height="1.23135" transform="matrix(-1 0 0 1 11.0811 20.9346)" fill="#F2E480"/>
<rect width="1.23135" height="1.23135" transform="matrix(-1 0 0 1 9.85059 20.9346)" fill="#F2E480"/>
<rect width="1.23135" height="1.23135" transform="matrix(-1 0 0 1 8.61914 20.9346)" fill="#F2E480"/>
<rect width="1.23135" height="1.23135" transform="matrix(-1 0 0 1 7.38672 20.9346)" fill="#F2E480"/>
<rect width="1.23135" height="1.23135" transform="matrix(-1 0 0 1 6.15625 20.9346)" fill="#F2E480"/>
<rect width="1.23135" height="1.23135" transform="matrix(-1 0 0 1 19.7012 20.9346)" fill="#E9AA43"/>
<rect width="1.23135" height="1.23135" transform="matrix(-1 0 0 1 18.4697 20.9346)" fill="#E9AA43"/>
<rect width="1.23135" height="1.23135" transform="matrix(-1 0 0 1 17.2393 20.9346)" fill="#E9AA43"/>
<rect width="1.23135" height="1.23135" transform="matrix(-1 0 0 1 20.9316 24.6284)" fill="#F2E480"/>
<rect width="1.23135" height="1.23135" transform="matrix(-1 0 0 1 16.0068 22.165)" fill="#F2E480"/>
<rect width="1.23135" height="1.23135" transform="matrix(-1 0 0 1 14.7754 24.6284)" fill="#F2E480"/>
<rect width="1.23135" height="1.23135" transform="matrix(-1 0 0 1 14.7754 22.165)" fill="#F2E480"/>
<rect width="1.23135" height="1.23135" transform="matrix(-1 0 0 1 13.5449 22.165)" fill="#F2E480"/>
<rect width="1.23135" height="1.23135" transform="matrix(-1 0 0 1 12.3125 22.165)" fill="#F2E480"/>
<rect width="1.23135" height="1.23135" transform="matrix(-1 0 0 1 11.0811 22.165)" fill="#F2E480"/>
<rect width="1.23135" height="1.23135" transform="matrix(-1 0 0 1 9.85059 22.165)" fill="#F2E480"/>
<rect width="1.23135" height="1.23135" transform="matrix(-1 0 0 1 8.61914 22.165)" fill="#F2E480"/>
<rect width="1.23135" height="1.23135" transform="matrix(-1 0 0 1 7.38672 22.165)" fill="#F2E480"/>
<rect width="1.23135" height="1.23135" transform="matrix(-1 0 0 1 6.15625 22.165)" fill="#F2E480"/>
<rect width="1.23135" height="1.23135" transform="matrix(-1 0 0 1 13.5449 24.6284)" fill="#F2E480"/>
<rect width="1.23135" height="1.23135" transform="matrix(-1 0 0 1 12.3125 24.6284)" fill="#F2E480"/>
<rect width="1.23135" height="1.23135" transform="matrix(-1 0 0 1 11.0811 24.6284)" fill="#F2E480"/>
<rect width="1.23135" height="1.23135" transform="matrix(-1 0 0 1 9.85059 24.6284)" fill="#F2E480"/>
<rect width="1.23135" height="1.23135" transform="matrix(-1 0 0 1 8.61914 24.6284)" fill="#F2E480"/>
<rect width="1.23135" height="1.23135" transform="matrix(-1 0 0 1 7.38672 24.6284)" fill="#F2E480"/>
<rect width="1.23135" height="1.23135" transform="matrix(-1 0 0 1 16.0068 23.396)" fill="#F2E480"/>
<rect width="1.23135" height="1.23135" transform="matrix(-1 0 0 1 14.7754 25.8594)" fill="#F2E480"/>
<rect width="1.23135" height="1.23135" transform="matrix(-1 0 0 1 14.7754 23.396)" fill="#F2E480"/>
<rect width="1.23135" height="1.23135" transform="matrix(-1 0 0 1 13.5449 23.396)" fill="#F2E480"/>
<rect width="1.23135" height="1.23135" transform="matrix(-1 0 0 1 12.3125 23.396)" fill="#F2E480"/>
<rect width="1.23135" height="1.23135" transform="matrix(-1 0 0 1 11.0811 23.396)" fill="#F2E480"/>
<rect width="1.23135" height="1.23135" transform="matrix(-1 0 0 1 9.85059 23.396)" fill="#F2E480"/>
<rect width="1.23135" height="1.23135" transform="matrix(-1 0 0 1 8.61914 23.396)" fill="#F2E480"/>
<rect width="1.23135" height="1.23135" transform="matrix(-1 0 0 1 7.38672 23.396)" fill="#F2E480"/>
<rect width="1.23135" height="1.23135" transform="matrix(-1 0 0 1 6.15625 23.396)" fill="#F2E480"/>
<rect width="1.23135" height="1.23135" transform="matrix(-1 0 0 1 11.0811 25.8594)" fill="#F2E480"/>
<rect width="1.23135" height="1.23135" transform="matrix(-1 0 0 1 11.0811 27.0903)" fill="#F2E480"/>
<rect width="1.23135" height="1.23135" transform="matrix(-1 0 0 1 9.85059 25.8594)" fill="#F2E480"/>
<rect width="1.23135" height="1.23135" transform="matrix(-1 0 0 1 9.85059 27.0903)" fill="#F2E480"/>
<rect width="1.23135" height="1.23135" transform="matrix(-1 0 0 1 8.61914 25.8594)" fill="#F2E480"/>
<rect width="1.23135" height="1.23135" transform="matrix(-1 0 0 1 8.61914 27.0903)" fill="#F2E480"/>
<rect width="1.23135" height="1.23135" transform="matrix(-1 0 0 1 7.38672 25.8594)" fill="#F2E480"/>
<rect width="1.23135" height="1.23135" transform="matrix(-1 0 0 1 7.38672 27.0903)" fill="#F2E480"/>
<rect width="1.23135" height="1.23135" transform="matrix(-1 0 0 1 6.15625 25.8594)" fill="#F2E480"/>
<rect width="1.23135" height="1.23135" transform="matrix(-1 0 0 1 6.15625 24.6284)" fill="#F2E480"/>
<rect width="1.23135" height="1.23135" transform="matrix(-1 0 0 1 4.9248 24.6284)" fill="#F2E480"/>
<rect width="1.23135" height="1.23135" transform="matrix(-1 0 0 1 4.9248 23.396)" fill="#F2E480"/>
<rect width="1.23135" height="1.23135" transform="matrix(-1 0 0 1 4.9248 22.165)" fill="#F2E480"/>
<rect width="1.23135" height="1.23135" transform="matrix(-1 0 0 1 4.9248 20.9346)" fill="#F2E480"/>
<rect width="1.23135" height="1.23135" transform="matrix(-1 0 0 1 4.9248 19.7017)" fill="#F2E480"/>
<rect width="1.23135" height="1.23135" transform="matrix(-1 0 0 1 4.9248 18.4712)" fill="#F2E480"/>
<rect width="1.23135" height="1.23135" transform="matrix(-1 0 0 1 13.5449 25.8594)" fill="#F2E480"/>
<rect width="1.23135" height="1.23135" transform="matrix(-1 0 0 1 12.3125 25.8594)" fill="#F2E480"/>
<rect width="1.23135" height="1.23135" transform="matrix(-1 0 0 1 12.3125 27.0903)" fill="#F2E480"/>
<rect width="1.23135" height="1.23135" transform="matrix(-1 0 0 1 18.4697 28.3213)" fill="#F2E480"/>
<rect width="1.23135" height="1.23135" transform="matrix(-1 0 0 1 17.2393 29.5537)" fill="#F2E480"/>
<rect width="1.23135" height="1.23135" transform="matrix(-1 0 0 1 12.3125 14.7769)" fill="#F2E480"/>
<rect width="1.23135" height="1.23135" transform="matrix(-1 0 0 1 13.5449 16.0093)" fill="#F2E480"/>
<rect width="1.23135" height="1.23135" transform="matrix(-1 0 0 1 12.3125 16.0093)" fill="#F2E480"/>
<rect width="1.23135" height="1.23135" transform="matrix(-1 0 0 1 11.0811 16.0093)" fill="#F2E480"/>
<rect width="1.23135" height="1.23135" transform="matrix(-1 0 0 1 9.85059 16.0093)" fill="#F2E480"/>
<rect width="1.23135" height="1.23135" transform="matrix(-1 0 0 1 8.61914 16.0093)" fill="#F2E480"/>
<rect width="1.23135" height="1.23135" transform="matrix(-1 0 0 1 7.38672 16.0093)" fill="#F2E480"/>
<rect width="1.23135" height="1.23135" transform="matrix(-1 0 0 1 16.0068 11.0825)" fill="#F2E480"/>
<rect width="1.23135" height="1.23135" transform="matrix(-1 0 0 1 14.7754 11.0825)" fill="#F2E480"/>
<rect width="1.23135" height="1.23135" transform="matrix(-1 0 0 1 27.0898 4.92627)" fill="#F2E480"/>
<rect width="1.23135" height="1.23135" transform="matrix(-1 0 0 1 27.0898 6.15723)" fill="#F2E480"/>
<rect width="1.23135" height="1.23135" transform="matrix(-1 0 0 1 14.7754 16.0093)" fill="#F2E480"/>
<rect width="1.23135" height="1.23135" transform="matrix(-1 0 0 1 17.2393 11.0825)" fill="#F2E480"/>
<rect width="1.23135" height="1.23135" transform="matrix(-1 0 0 1 14.7754 17.2402)" fill="#F2E480"/>
<rect width="1.23135" height="1.23135" transform="matrix(-1 0 0 1 13.5449 17.2402)" fill="#F2E480"/>
<rect width="1.23135" height="1.23135" transform="matrix(-1 0 0 1 12.3125 17.2402)" fill="#F2E480"/>
<rect width="1.23135" height="1.23135" transform="matrix(-1 0 0 1 11.0811 17.2402)" fill="#F2E480"/>
<rect width="1.23135" height="1.23135" transform="matrix(-1 0 0 1 9.85059 17.2402)" fill="#F2E480"/>
<rect width="1.23135" height="1.23135" transform="matrix(-1 0 0 1 8.61914 17.2402)" fill="#F2E480"/>
<rect width="1.23135" height="1.23135" transform="matrix(-1 0 0 1 7.38672 17.2402)" fill="#F2E480"/>
<rect width="1.23135" height="1.23135" transform="matrix(-1 0 0 1 6.15625 17.2402)" fill="#F2E480"/>
<rect width="1.23135" height="1.23135" transform="matrix(-1 0 0 1 17.2393 12.3149)" fill="#F2E480"/>
<rect width="1.23135" height="1.23135" transform="matrix(-1 0 0 1 9.85059 14.7769)" fill="#F2E480"/>
<rect width="1.23135" height="1.23135" transform="matrix(-1 0 0 1 14.7754 30.7847)" fill="#F2E480"/>
<rect width="1.23135" height="1.23135" transform="matrix(-1 0 0 1 19.7012 24.6284)" fill="#F2E480"/>
<rect width="1.23135" height="1.23135" transform="matrix(-1 0 0 1 17.2393 28.3213)" fill="#F2E480"/>
<rect width="1.23135" height="1.23135" transform="matrix(-1 0 0 1 16.0068 29.5537)" fill="#F2E480"/>
<rect width="1.23135" height="1.23135" transform="matrix(-1 0 0 1 11.0811 14.7769)" fill="#F2E480"/>
<rect width="1.23135" height="1.23135" transform="matrix(-1 0 0 1 8.61914 14.7769)" fill="#F2E480"/>
<rect width="1.23135" height="1.23135" transform="matrix(-1 0 0 1 6.15625 16.0093)" fill="#F2E480"/>
<rect width="1.23135" height="1.23135" transform="matrix(-1 0 0 1 13.5449 30.7847)" fill="#F2E480"/>
<rect width="1.23135" height="1.23135" transform="matrix(-1 0 0 1 19.7012 25.8594)" fill="#F2E480"/>
<rect width="1.23135" height="1.23135" transform="matrix(-1 0 0 1 19.7012 27.0903)" fill="#F2E480"/>
<rect width="1.23135" height="1.23135" transform="matrix(-1 0 0 1 18.4697 27.0903)" fill="#F2E480"/>
<rect width="1.23135" height="1.23135" transform="matrix(-1 0 0 1 19.7012 22.165)" fill="#E9AA43"/>
<rect width="1.23135" height="1.23135" transform="matrix(-1 0 0 1 18.4697 22.165)" fill="#E9AA43"/>
<rect width="1.23135" height="1.23135" transform="matrix(-1 0 0 1 18.4697 24.6284)" fill="#E9AA43"/>
<rect width="1.23135" height="1.23135" transform="matrix(-1 0 0 1 17.2393 22.165)" fill="#E9AA43"/>
<rect width="1.23135" height="1.23135" transform="matrix(-1 0 0 1 17.2393 24.6284)" fill="#E9AA43"/>
<rect width="1.23135" height="1.23135" transform="matrix(-1 0 0 1 16.0068 24.6284)" fill="#E9AA43"/>
<rect width="1.23135" height="1.23135" transform="matrix(-1 0 0 1 19.7012 23.396)" fill="#E9AA43"/>
<rect width="1.23135" height="1.23135" transform="matrix(-1 0 0 1 18.4697 23.396)" fill="#E9AA43"/>
<rect width="1.23135" height="1.23135" transform="matrix(-1 0 0 1 18.4697 25.8594)" fill="#E9AA43"/>
<rect width="1.23135" height="1.23135" transform="matrix(-1 0 0 1 17.2393 23.396)" fill="#E9AA43"/>
<rect width="1.23135" height="1.23135" transform="matrix(-1 0 0 1 17.2393 25.8594)" fill="#E9AA43"/>
<rect width="1.23135" height="1.23135" transform="matrix(-1 0 0 1 17.2393 27.0903)" fill="#E9AA43"/>
<rect width="1.23135" height="1.23135" transform="matrix(-1 0 0 1 14.7754 27.0903)" fill="#E9AA43"/>
<rect width="1.23135" height="1.23135" transform="matrix(-1 0 0 1 16.0068 28.3213)" fill="#E9AA43"/>
<rect width="1.23135" height="1.23135" transform="matrix(-1 0 0 1 14.7754 29.5537)" fill="#E9AA43"/>
<rect width="1.23135" height="1.23135" transform="matrix(-1 0 0 1 16.0068 25.8594)" fill="#E9AA43"/>
<rect width="1.23135" height="1.23135" transform="matrix(-1 0 0 1 16.0068 27.0903)" fill="#E9AA43"/>
<rect width="1.23135" height="1.23135" transform="matrix(-1 0 0 1 13.5449 27.0903)" fill="#E9AA43"/>
<rect width="1.23135" height="1.23135" transform="matrix(-1 0 0 1 14.7754 28.3213)" fill="#E9AA43"/>
<rect width="1.23135" height="1.23135" transform="matrix(-1 0 0 1 13.5449 28.3213)" fill="#E9AA43"/>
<rect width="1.23135" height="1.23135" transform="matrix(-1 0 0 1 12.3125 28.3213)" fill="#E9AA43"/>
<rect width="1.23135" height="1.23135" transform="matrix(-1 0 0 1 11.0811 28.3213)" fill="#E9AA43"/>
<rect width="1.23135" height="1.23135" transform="matrix(-1 0 0 1 9.85059 28.3213)" fill="#E9AA43"/>
<rect width="1.23135" height="1.23135" transform="matrix(-1 0 0 1 7.38672 28.3213)" fill="#E9AA43"/>
<rect width="1.23135" height="1.23135" transform="matrix(-1 0 0 1 6.15625 27.0903)" fill="#E9AA43"/>
<rect width="1.23135" height="1.23135" transform="matrix(-1 0 0 1 8.61914 28.3213)" fill="#E9AA43"/>
<rect width="1.23135" height="1.23135" transform="matrix(-1 0 0 1 6.15625 28.3213)" fill="#E9AA43"/>
<rect width="1.23135" height="1.23135" transform="matrix(-1 0 0 1 4.9248 27.0903)" fill="#E9AA43"/>
<rect width="1.23135" height="1.23135" transform="matrix(-1 0 0 1 4.9248 25.8594)" fill="#E9AA43"/>
<rect width="1.23135" height="1.23135" transform="matrix(-1 0 0 1 3.69238 24.6284)" fill="#E9AA43"/>
<rect width="1.23135" height="1.23135" transform="matrix(-1 0 0 1 3.69238 23.396)" fill="#E9AA43"/>
<rect width="1.23135" height="1.23135" transform="matrix(-1 0 0 1 3.69238 22.165)" fill="#E9AA43"/>
<rect width="1.23135" height="1.23135" transform="matrix(-1 0 0 1 3.69238 20.9346)" fill="#E9AA43"/>
<rect width="1.23135" height="1.23135" transform="matrix(-1 0 0 1 3.69238 19.7017)" fill="#E9AA43"/>
<rect width="1.23135" height="1.23135" transform="matrix(-1 0 0 1 4.9248 17.2402)" fill="#E9AA43"/>
<rect width="1.23135" height="1.23135" transform="matrix(-1 0 0 1 13.5449 29.5537)" fill="#E9AA43"/>
<rect width="1.23135" height="1.23135" transform="matrix(-1 0 0 1 12.3125 29.5537)" fill="#E9AA43"/>
<rect width="1.23135" height="1.23135" transform="matrix(-1 0 0 1 11.0811 29.5537)" fill="#E9AA43"/>
<rect width="1.23135" height="1.23135" transform="matrix(-1 0 0 1 9.85059 29.5537)" fill="#E9AA43"/>
<rect width="1.23135" height="1.23135" transform="matrix(-1 0 0 1 8.61914 29.5537)" fill="#E9AA43"/>
<rect width="1.23135" height="1.23135" transform="matrix(-1 0 0 1 23.3955 13.5459)" fill="#070202"/>
<rect width="1.23135" height="1.23135" transform="matrix(-1 0 0 1 22.1641 13.5459)" fill="#070202"/>
<rect width="1.23135" height="1.23135" transform="matrix(-1 0 0 1 20.9316 12.3149)" fill="#070202"/>
<rect width="1.23135" height="1.23135" transform="matrix(-1 0 0 1 19.7012 11.0825)" fill="#070202"/>
<rect width="1.23135" height="1.23135" transform="matrix(-1 0 0 1 18.4697 11.0825)" fill="#070202"/>
<rect width="1.23135" height="1.23135" transform="matrix(-1 0 0 1 17.2393 9.85156)" fill="#070202"/>
<rect width="1.23135" height="1.23135" transform="matrix(-1 0 0 1 16.0068 9.85156)" fill="#070202"/>
<rect width="1.23135" height="1.23135" transform="matrix(-1 0 0 1 14.7754 9.85156)" fill="#070202"/>
<rect width="1.23135" height="1.23135" transform="matrix(-1 0 0 1 22.1641 17.2402)" fill="#070202"/>
<rect width="1.23135" height="1.23135" transform="matrix(-1 0 0 1 23.3955 20.9346)" fill="#070202"/>
<rect width="1.23135" height="1.23135" transform="matrix(-1 0 0 1 22.1641 20.9346)" fill="#070202"/>
<rect width="1.23135" height="1.23135" transform="matrix(-1 0 0 1 20.9316 17.2402)" fill="#070202"/>
<rect width="1.23135" height="1.23135" transform="matrix(-1 0 0 1 20.9316 13.5459)" fill="#E5762E"/>
<rect width="1.23135" height="1.23135" transform="matrix(-1 0 0 1 28.3203 6.15723)" fill="#E5762E"/>
<rect width="1.23135" height="1.23135" transform="matrix(-1 0 0 1 25.8564 1.23193)" fill="#E5762E"/>
<rect width="1.23135" height="1.23135" transform="matrix(-1 0 0 1 25.8564 0.000976562)" fill="#E5762E"/>
<rect width="1.23135" height="1.23135" transform="matrix(-1 0 0 1 27.0898 0.000976562)" fill="#E5762E"/>
<rect width="1.23135" height="1.23135" transform="matrix(-1 0 0 1 22.1641 12.3149)" fill="#070202"/>
<rect width="1.23135" height="1.23135" transform="matrix(-1 0 0 1 20.9316 11.0825)" fill="#070202"/>
<rect width="1.23135" height="1.23135" transform="matrix(-1 0 0 1 20.9316 9.85156)" fill="#37322E"/>
<rect width="1.23135" height="1.23135" transform="matrix(-1 0 0 1 20.9316 8.62061)" fill="#37322E"/>
<rect width="1.23135" height="1.23135" transform="matrix(-1 0 0 1 24.626 8.62061)" fill="#37322E"/>
<rect width="1.23135" height="1.23135" transform="matrix(-1 0 0 1 25.8564 8.62061)" fill="#37322E"/>
<rect width="1.23135" height="1.23135" transform="matrix(-1 0 0 1 22.1641 7.38965)" fill="#555453"/>
<rect width="1.23135" height="1.23135" transform="matrix(-1 0 0 1 27.0898 8.62061)" fill="#555453"/>
<rect width="1.23135" height="1.23135" transform="matrix(-1 0 0 1 27.0898 7.38965)" fill="#555453"/>
<rect width="1.23135" height="1.23135" transform="matrix(-1 0 0 1 28.3203 7.38965)" fill="#555453"/>
<rect width="1.23135" height="1.23135" transform="matrix(-1 0 0 1 23.3955 7.38965)" fill="#555453"/>
<rect width="1.23135" height="1.23135" transform="matrix(-1 0 0 1 19.7012 9.85156)" fill="#070202"/>
<rect width="1.23135" height="1.23135" transform="matrix(-1 0 0 1 18.4697 9.85156)" fill="#070202"/>
<rect width="1.23135" height="1.23135" transform="matrix(-1 0 0 1 17.2393 8.62061)" fill="#070202"/>
<rect width="1.23135" height="1.23135" transform="matrix(-1 0 0 1 16.0068 8.62061)" fill="#070202"/>
<rect width="1.23135" height="1.23135" transform="matrix(-1 0 0 1 14.7754 8.62061)" fill="#3F1806"/>
<rect width="1.23135" height="1.23135" transform="matrix(-1 0 0 1 22.1641 16.0093)" fill="#070202"/>
<rect width="1.23135" height="1.23135" transform="matrix(-1 0 0 1 22.1641 19.7017)" fill="#070202"/>
<rect width="1.23135" height="1.23135" transform="matrix(-1 0 0 1 20.9316 16.0093)" fill="#070202"/>
<rect width="1.23135" height="1.23135" transform="matrix(-1 0 0 1 13.5449 11.0825)" fill="#070202"/>
<rect width="1.23135" height="1.23135" transform="matrix(-1 0 0 1 12.3125 12.3149)" fill="#070202"/>
<rect width="1.23135" height="1.23135" transform="matrix(-1 0 0 1 11.0811 12.3149)" fill="#070202"/>
<rect width="1.23135" height="1.23135" transform="matrix(-1 0 0 1 9.85059 12.3149)" fill="#070202"/>
<rect width="1.23135" height="1.23135" transform="matrix(-1 0 0 1 8.61914 12.3149)" fill="#070202"/>
<rect width="1.23135" height="1.23135" transform="matrix(-1 0 0 1 8.61914 13.5459)" fill="#070202"/>
<rect width="1.23135" height="1.23135" transform="matrix(-1 0 0 1 7.38672 13.5459)" fill="#070202"/>
<rect width="1.23135" height="1.23135" transform="matrix(-1 0 0 1 6.15625 14.7769)" fill="#070202"/>
<rect width="1.23135" height="1.23135" transform="matrix(-1 0 0 1 4.9248 16.0093)" fill="#070202"/>
<rect width="1.23135" height="1.23135" transform="matrix(-1 0 0 1 3.69238 17.2402)" fill="#070202"/>
<rect width="1.23135" height="1.23135" transform="matrix(-1 0 0 1 3.69238 18.4712)" fill="#070202"/>
<rect width="1.23135" height="1.23135" transform="matrix(-1 0 0 1 2.46191 19.7017)" fill="#070202"/>
<rect width="1.23135" height="1.23135" transform="matrix(-1 0 0 1 2.46191 20.9346)" fill="#070202"/>
<rect width="1.23135" height="1.23135" transform="matrix(-1 0 0 1 2.46191 22.165)" fill="#070202"/>
<rect width="1.23135" height="1.23135" transform="matrix(-1 0 0 1 2.46191 23.396)" fill="#070202"/>
<rect width="1.23135" height="1.23135" transform="matrix(-1 0 0 1 2.46191 24.6284)" fill="#070202"/>
<rect width="1.23135" height="1.23135" transform="matrix(-1 0 0 1 3.69238 25.8594)" fill="#070202"/>
<rect width="1.23135" height="1.23135" transform="matrix(-1 0 0 1 3.69238 27.0903)" fill="#070202"/>
<rect width="1.23135" height="1.23135" transform="matrix(-1 0 0 1 4.9248 28.3213)" fill="#070202"/>
<rect width="1.23135" height="1.23135" transform="matrix(-1 0 0 1 6.15625 29.5537)" fill="#070202"/>
<rect width="1.23135" height="1.23135" transform="matrix(-1 0 0 1 7.38672 30.7847)" fill="#070202"/>
<rect width="1.23135" height="1.23135" transform="matrix(-1 0 0 1 8.61914 30.7847)" fill="#070202"/>
<rect width="1.23135" height="1.23135" transform="matrix(-1 0 0 1 6.15625 13.5459)" fill="#070202"/>
<rect width="1.23135" height="1.23135" transform="matrix(-1 0 0 1 4.9248 14.7769)" fill="#070202"/>
<rect width="1.23135" height="1.23135" transform="matrix(-1 0 0 1 3.69238 16.0093)" fill="#070202"/>
<rect width="1.23135" height="1.23135" transform="matrix(-1 0 0 1 2.46191 17.2402)" fill="#070202"/>
<rect width="1.23135" height="1.23135" transform="matrix(-1 0 0 1 2.46191 18.4712)" fill="#070202"/>
<rect width="1.23135" height="1.23135" transform="matrix(-1 0 0 1 1.23047 19.7017)" fill="#070202"/>
<rect width="1.23135" height="1.23135" transform="matrix(-1 0 0 1 1.23047 20.9346)" fill="#070202"/>
<rect width="1.23135" height="1.23135" transform="matrix(-1 0 0 1 1.23047 22.165)" fill="#070202"/>
<rect width="1.23135" height="1.23135" transform="matrix(-1 0 0 1 1.23047 23.396)" fill="#070202"/>
<rect width="1.23135" height="1.23135" transform="matrix(-1 0 0 1 1.23047 24.6284)" fill="#070202"/>
<rect width="1.23135" height="1.23135" transform="matrix(-1 0 0 1 2.46191 25.8594)" fill="#070202"/>
<rect width="1.23135" height="1.23135" transform="matrix(-1 0 0 1 2.46191 27.0903)" fill="#070202"/>
<rect width="1.23135" height="1.23135" transform="matrix(-1 0 0 1 3.69238 28.3213)" fill="#070202"/>
<rect width="1.23135" height="1.23135" transform="matrix(-1 0 0 1 4.9248 29.5537)" fill="#070202"/>
<rect width="1.23135" height="1.23135" transform="matrix(-1 0 0 1 6.15625 30.7847)" fill="#070202"/>
<rect width="1.23135" height="1.23135" transform="matrix(-1 0 0 1 13.5449 9.85156)" fill="#070202"/>
<rect width="1.23135" height="1.23135" transform="matrix(-1 0 0 1 12.3125 11.0825)" fill="#070202"/>
<rect width="1.23135" height="1.23135" transform="matrix(-1 0 0 1 11.0811 11.0825)" fill="#070202"/>
</svg>
